<svg xmlns="http://www.w3.org/2000/svg" width="512" height="512" viewBox="0 0 512 512">
  <defs>
    <linearGradient id="g" x1="0" x2="1" y1="0" y2="1">
      <stop offset="0%" stop-color="#ff8a00"/>
      <stop offset="100%" stop-color="#ff5500"/>
    </linearGradient>
  </defs>
  <rect width="512" height="512" rx="96" fill="url(#g)"/>
  <path fill="#ffffff" d="M128 384V140c0-6.6 5.4-12 12-12h44c5 0 9.6 3 11.3 7.7L256 220l60.7-84.3c1.7-4.7 6.3-7.7 11.3-7.7h44c6.6 0 12 5.4 12 12v244c0 6.6-5.4 12-12 12h-44c-6.6 0-12-5.4-12-12V261.8l-37.9 51.7c-5.5 7.4-16.7 7.4-22.2 0L196 261.8V384c0 6.6-5.4 12-12 12h-44c-6.6 0-12-5.4-12-12z"/>
</svg>

